{"title":"Beast 2017 720p BRRip x264 ESub [MW]","magnet":"magnet:?xt=urn:btih:743664d63c0cbf0bb8f9ae7c6df2517e85265958&dn=Beast+2017+720p+BRRip+x264+ESub+%5BMW%5D&tr=udp%3A%2F%2Ftracker.leechers-paradise.org%3A6969&tr=udp%3A%2F%2Fzer0day.ch%3A1337&tr=udp%3A%2F%2Fopen.demonii.com%3A1337&tr=udp%3A%2F%2Ftracker.coppersurfer.tk%3A6969&tr=udp%3A%2F%2Fexodus.desync.com%3A6969","uploader":"MFreaky","categoryP":"video","categoryS":"hd___movies","size":"872198877","seeders":"3","leechers":"4","description":"\n\r\nIMDB <a href=\"\nhttps://www.imdb.com/title/tt5628302/\" rel=\"nofollow\" target=\"_NEW\">\nhttps://www.imdb.com/title/tt5628302/</a>\r\n\r\nVideo\r\nID : 1\r\nFormat : AVC\r\nFormat/Info : Advanced Video Codec\r\nFormat profile : High@L4.1\r\nFormat settings : CABAC / 4 Ref Frames\r\nFormat settings, CABAC : Yes\r\nFormat settings, RefFrames : 4 frames\r\nCodec ID : V_MPEG4/ISO/AVC\r\nDuration : 1 h 46 min\r\nBit rate : 1 000 kb/s\r\nWidth : 1 280 pixels\r\nHeight : 536 pixels\r\nDisplay aspect ratio : 2.40:1\r\nFrame rate mode : Constant\r\nFrame rate : 24.000 FPS\r\nColor space : YUV\r\nChroma subsampling : 4:2:0\r\nBit depth : 8 bits\r\nScan type : Progressive\r\nBits/(Pixel*Frame) : 0.061\r\nStream size : 754 MiB (91%)\r\nWriting library : x264 core 155 r2901 7d0ff22\r\nDefault : Yes\r\nForced : No\r\n\r\nAudio\r\nID : 2\r\nFormat : AAC\r\nFormat/Info : Advanced Audio Codec\r\nFormat profile : LC\r\nCodec ID : A_AAC-2\r\nDuration : 1 h 46 min\r\nBit rate : 96.0 kb/s\r\nChannel(s) : 2 channels\r\nChannel positions : Front: L R\r\nSampling rate : 48.0 kHz\r\nFrame rate : 46.875 FPS (1024 SPF)\r\nCompression mode : Lossy\r\nStream size : 73.0 MiB (9%)\r\nLanguage : English\r\nDefault : Yes\r\nForced : No","last_updated":"2018-08-20T12:04:53.820Z","parsed":{"xt":"urn:btih:743664d63c0cbf0bb8f9ae7c6df2517e85265958","dn":"Beast 2017 720p BRRip x264 ESub [MW]","tr":["udp://exodus.desync.com:6969","udp://open.demonii.com:1337","udp://tracker.coppersurfer.tk:6969","udp://tracker.leechers-paradise.org:6969","udp://zer0day.ch:1337"],"infoHash":"743664d63c0cbf0bb8f9ae7c6df2517e85265958","infoHashBuffer":{"type":"Buffer","data":[116,54,100,214,60,12,191,11,184,249,174,124,109,242,81,126,133,38,89,88]},"name":"Beast 2017 720p BRRip x264 ESub [MW]","announce":["udp://exodus.desync.com:6969","udp://open.demonii.com:1337","udp://tracker.coppersurfer.tk:6969","udp://tracker.leechers-paradise.org:6969","udp://zer0day.ch:1337"],"urlList":[]}}